# xmcd
#
# Track frame offsets: 
#        150
#        12053
#        22350
#        33065
#        42152
#        51119
#        61507
#        72480
#        82681
#        93422
#        104115
#        115460
#        127123
#
# Disc length: 1881 seconds
#
# Revision: 0
# Processed by: cddbd v1.5.2PL0 Copyright (c) Steve Scherf et al.
# Submitted via: ExactAudioCopy v0.95b4
#
DISCID=a907570d
DTITLE=The Everly Brothers - The Very Best Of
DYEAR=1900
DGENRE=Country
TTITLE0=Let It Be Me
TTITLE1=Bye Bye Love
TTITLE2=('Til) I Kissed You
TTITLE3=Wake Up Little Susie
TTITLE4=Crying In The Rain
TTITLE5=Walk Right Back
TTITLE6=Cathy's Clown
TTITLE7=Bird Dog
TTITLE8=All I Have To Do Is Dream
TTITLE9=Devoted To You
TTITLE10=Lucille
TTITLE11=So Sad (To Watch Good Love Go Bad)
TTITLE12=Ebony Eyes
EXTD=
EXTT0=
EXTT1=
EXTT2=
EXTT3=
EXTT4=
EXTT5=
EXTT6=
EXTT7=
EXTT8=
EXTT9=
EXTT10=
EXTT11=
EXTT12=
PLAYORDER=
